<svg enable-background="new 0 0 32.001 32.001" height="32.001" viewBox="0 0 32.001 32.001" width="32.001" xmlns="http://www.w3.org/2000/svg"><path d="m25.225 12.126s.674-2.593 0-3.699c-.672-1.104-4.611-2.931-4.611-2.931s1.826-4.085-3.938-4.373c3.173 1.683 2.21 3.604 2.21 3.604l-3.748 1.25s-1.537-3.987-9.032-4.469c4.229.24 7.742.421 9.519 3.352.935-.29 1.31-.635 2.3-.827-.251-2.276-3.241-3.223-4.375-3.486-1.135-.265-7.494-1.184-9.495.355-.915.433-3.86 4.448-3.876 6.563-.019 2.115-.179 17.967-.179 19.217s1.539 5.286 2.548 5.286h15.038c1.538-.047-11.818-15.498-5.236-19.603-3.557 6.102 4.083 13.454 5.38 14.51 1.297 1.057 5.621 1.538 6.196 1.441.576-.098 2.308-3.604 2.308-4.036s-3.699-2.597-3.987-2.979-3.442.321-3.442-1.072c0-1.395 3.01-2.098 4.163-1.714 1.153.385 4.035 2.931 4.708 2.979.674.049 4.178-4.324 4.323-5.382.146-1.056-6.774-3.986-6.774-3.986zm-14.93-1.019c-.229.134-.504.3-.779.536-.286.224-.549.53-.813.861-.228.357-.453.753-.552 1.217-.136.452-.122.962-.091 1.479.057.521.203 1.056.386 1.595.18.585.363 1.178.547 1.771.194.573.263 1.239.393 1.847.141.62.167 1.229.221 1.814.067.584.081 1.15.069 1.688.008.538 0 1.047-.045 1.513-.047.936-.192 1.706-.271 2.242-.098.535-.182.837-.182.837s-.016-.311-.042-.853c-.021-.54-.086-1.309-.167-2.222-.09-.91-.178-1.977-.372-3.094-.078-.562-.172-1.142-.302-1.706-.139-.574-.195-1.146-.406-1.738-.168-.587-.334-1.175-.499-1.752-.2-.612-.306-1.251-.34-1.88-.012-.631.06-1.257.284-1.805.182-.563.533-1.014.866-1.382.715-.715 1.491-1.005 2.007-1.179.529-.16.845-.17.845-.17s-.295.115-.757.381zm-1.333-2.756c-.664.303-1.432.688-2.088 1.232-.324.271-.626.584-.824.932-.135.161-.157.365-.25.541-.031.214-.072.35-.097.626-.048.481-.124 1.032-.223 1.523-.086.501-.23.979-.36 1.44-.272.923-.609 1.757-.958 2.442-.341.688-.7 1.229-1 1.573-.148.175-.295.287-.395.354-.113.049-.173.072-.173.072s.045-.041.131-.119c.072-.095.152-.24.244-.435.178-.393.372-.979.577-1.689.196-.713.404-1.549.589-2.448.097-.449.169-.918.249-1.389.082-.479.13-.924.171-1.438.025-.223.096-.578.162-.853.127-.268.206-.571.391-.796.303-.506.745-.852 1.157-1.153.422-.294.865-.493 1.283-.668.421-.165.828-.282 1.204-.372 1.514-.351 2.54-.263 2.54-.263s-.981.301-2.33.888z"/></svg>