<svg enable-background="new 0 0 31.979 31.979" height="31.979" viewBox="0 0 31.979 31.979" width="31.979" xmlns="http://www.w3.org/2000/svg"><path d="m22.798 29.64c-.671-.383-.359-1.321-.524-1.93-3.869 2.551-6.498-1.798-6.688-2.801-.907-.432-7.215-10.561-7.215-10.561l-3.729 2.914 1.1-6.977-1.673-2.958s2.867-3.68 1.959-3.918c-.906-.239-2.866 1.147-3.199 2.151-.334 1.003.477 5.11.477 5.11s-1.959 2.963-2.103 4.11c-.145 1.146-.812 8.171.19 8.888s8.074-4.491 8.743-4.015c.67.479 1.479 9.243 1.576 9.844.098.6-.62 2.483-.62 2.483s11.609 0 12.757 0c1.146 0 .479-2.342.479-2.342s-.86.383-1.53.002z"/><path d="m21.461.542c-4.491-2.389-6.126 3.902-6.126 3.902s6.63 4.604 6.642 4.46c.011-.145 3.977-5.973-.516-8.362z"/><path d="m26.986 19.798c-.812.19-5.012 2.132-5.356 2.657.322.733 1.048 3.396 1.326 4.229.277.833 7.153-5.787 7.153-5.787s-2.312-1.292-3.123-1.099z"/><path d="m24.638 26.505c-.392.069-.823.469-.823.469s-1.058.93-.824 1.734c.232.808 1.271.306 1.531 0 .261-.306.508-2.272.116-2.203z"/><path d="m25.456 25.925s-.107 4.932-.564 5.865h2.078c.712 0-.522-6.304-.686-6.429s-.828.564-.828.564z"/><path d="m27.757 23.96c-.233-.089-1.076.854-1.076.854s1.114 3.096 1.104 6.854c3.341-.042 0 0 3.341-.042.106-1.827-3.135-7.576-3.369-7.666z"/><path d="m29.373 22.635c-.306-.019-1.086 1.013-1.086 1.013s.938.853 1.822 2.519c.155-.112.423-.468.496-.878.074-.411-.929-2.638-1.232-2.654z"/><path d="m30.479 23.268c.126-.229.416-1.539.146-1.72-.271-.179-.821.762-.821.762s.55 1.184.675.958z"/><path d="m18.119 15.318c-.016-.037-.023-.062-.023-.062s.81-2.894.452-3.344c-.446-.565-2.149-2.724-2.149-2.724s-2.197.085-2.148.859c.048.775.286 4.635.286 4.635l1.004.622s0 8.791.858 9.508c2.246 4.204 5.064 2.866 5.542 1.911.188-.376-.368-2.232-1.109-4.346-.033-.094-.066-.188-.102-.284-.104-.287-.206-.573-.312-.865-.021-.061-.043-.118-.064-.179-.876-2.382-1.827-4.743-2.142-5.514-.021-.052-.04-.099-.056-.136-.023-.043-.029-.057-.037-.081z"/><path d="m15.007 22.799c-.181-1.414-.318-3.596-.33-7.014l-.599-.369-.378-.233-.026-.444-.287-4.633c-.021-.341.099-.672.336-.936.623-.688 2.054-.814 2.642-.838l.438-.019.271.344 2.149 2.724c.195.25.602.764-.224 3.822 1.153 2.812 1.961 4.93 2.533 6.554 1.45-1.07 4.033-2.099 5.245-2.552 1.229-.459 3.023-4.301-.826-6.958-3.964-2.007-13.854-9.699-15.384-9.843-1.528-.141-5.59 4.159-5.445 5.066.126.801 6.087 9.78 9.885 15.329z"/></svg>