<svg enable-background="new 0 0 31.719 31.719" height="31.719" viewBox="0 0 31.719 31.719" width="31.719" xmlns="http://www.w3.org/2000/svg"><path d="m31.719 15.485-2.341-1.193v.907h-.91c-.058-11.776-13.325-12.708-13.325-12.708l-1.594-2.354-1.092.537 2.092 3.015-3.232 5.229c-.148-.015-.293-.039-.446-.039-2.252 0-4.078 1.63-4.078 3.641 0 1.14.599 2.145 1.517 2.812-.978.377-8.31 3.348-8.31 3.348v2.062l4.638.683s1.524 4.044 1.047 6.002-4.302 2.731-4.302 2.731l.002 1.424h9.458s2.209-2.59 1.146-5.016c.321-.609.638-1.293.952-1.984l1.788 3.143c-.597.821-1.833 2.521-1.833 2.521l.765 1.146 1.672-2.483s12.753-.812 13.136-13.134h.908v.906zm-16.216-11.704c2.647.252 10.083 1.823 10.833 11.418l-12.777.038c.846-.667 1.39-1.632 1.39-2.719 0-1.587-1.145-2.923-2.731-3.421zm.092 23.211-2.083-3.694c.757-1.613.813-3.265.813-3.265l10.944-1.351s.271.308.906.382c-1.433 7.781-9.464 8.278-10.58 7.928zm8.337-9.311-11.505-.739-.168-1.014c.049-.018.103-.024.151-.042l13.964-.114c.017.348.024.688.021 1.016-.927.231-2.463.893-2.463.893z"/></svg>