<svg enable-background="new 0 0 31.998 31.998" height="31.998" viewBox="0 0 31.998 31.998" width="31.998" xmlns="http://www.w3.org/2000/svg"><path d="m24.232 22.875c-.648-.173-2.002-.513-2.367-.604-.364-.096-.793-2.078-.793-2.078l-.217-1.068s1.604.81 2.123 1.068c.516.26 1.271-1.235 1.471-1.43.199-.193.852.312.953 0 .101-.313-.605-1.171-1.125-.996-.521.174-1.039 1.039-1.604.996-.562-.043-1.646-.996-1.646-.996l-.435-1.861s.996.953 1.646 1.039c.65.087 1.561-1.212 1.775-1.991.217-.779.389-2.284-.347-2.251.173 1.082-.75 3.03-1.212 2.9-.463-.13-3.555-2.378-4.117-2.294 1.689-.949 1-2.729 1-2.729s2.178.823 2.9 1.039c.723.217 1.281-.921 1.281-.921s.521.017 1.187-.638c4.112-5.715-2.511-10.088-3.595-9.698 4.07 3.767 2.469 6.191 2.469 6.191s-.909-.217-.865-.736c.043-.52-.341.141-1.861.996s1.299 3.767 1.299 3.767-1.256-.276-1.965-.735c-.569-.261-.5-.25-1.369-.52 0 0-.282-2.536-1.215-2.407.195.65.448 2.216-.396 2.281-1.45.021-.958-1.75-.417-2.313-1.076-.39-1.56 1.672-1.435 2.188-.344.205-.879.351-1.428.669-.548.317-1.75.491-1.75.491s2.82-2.911 1.299-3.767c-1.522-.856-1.905-1.515-1.862-.996s-.866.736-.866.736-1.602-2.424 2.468-6.19c-1.082-.391-8.144 5.952-3.593 9.697.579.304.638.375.839.462.407.043.308 1.185 1.464 1.229 1.157.043 3.065-1.171 3.065-1.171s-.779 2.121.909 3.07c-.563-.083-3.563 1.821-4.026 1.951s-1.386-1.818-1.212-2.9c-.735-.033-.563 1.472-.347 2.251s1.126 2.08 1.775 1.994c.649-.088 1.645-1.04 1.645-1.04l-.433 1.86s-1.082.953-1.646.996c-.563.043-1.082-.823-1.602-.996s-1.154.589-1.124.996.753-.191.953 0c.199.192.955 1.688 1.472 1.43.516-.261 2.121-1.068 2.121-1.068l-.216 1.068s-.429 1.983-.793 2.077c-.365.095-1.719.435-2.368.605-.649.174-1.05.595-.907.861.143.268.432-.168 1.384.221.952.39 2.338-.346 2.685-.908.346-.562.452-1.08.452-1.08s.754 2.353 1.844 3.435c.251.344 1.077 4.719-1.131 4.805-.779 0-2.663-1.529-2.836-2.741-.174-1.212-3.248-3.681-3.248-3.681l-.908.691s2.795 2.495 3.03 3.59c.235 1.092.478 3.295 3.962 4.203 3.484.909 4.642-6.852 4.642-6.852h-.002c.933-1.165 1.555-3.104 1.555-3.104s.105.519.453 1.081c.347.563 1.729 1.301 2.685.909.952-.391 1.46.488 1.646.26.182-.228-.525-1.169-1.173-1.343z"/><path d="m22.316 5.499s-1.549-2.236-1.463-4.401c-1.817.909-.396 5.57-.396 5.57z"/><path d="m13.948 6.293s1.342-4.286-.477-5.195c.087 2.165-1.386 4.026-1.386 4.026z"/><path d="m8.11 23.287c.331-.281.274-1.039 0-1.275-.275-.239-1.026-.912-2.15-1.537.325.758.043 1.797.238 2.487.194.691.888.996 1.234.802.346-.195.346-.195.678-.477z"/></svg>