<svg enable-background="new 0 0 32 32" height="32" viewBox="0 0 32 32" width="32" xmlns="http://www.w3.org/2000/svg"><path d="m29.452 9.632c.438-1.48 1.816-3.787-1.402-7.639-3.223-3.854-10.914-1.851-7.854 3.702.506-3.938 4.119-3.55 6.139-1.127.758 1.012.189 2.641.189 2.641s-3.668-.841-3.803 3.903c-.055 1.021-1.342 2.568-1.449 2.645-2.285 1.601-8.079-.322-13.439.059-4.776.051-6.986 2.719-5.996 5.945.619.288.924-2.422 1.245-2.285.322.135-.559 1.65-.381 2.285.178.637.838 2.635.584 3.455-.254.822-2.263 2.788-2.263 3.813s.146 3.521.146 3.521-.154 1.45.152 1.45 1.963-.055 2.358-.055-.198-1.313-1.011-1.396c0-.312.187-3.389.187-3.389l2.387-2.872s.275 2.815.656 3.375c.382.561 1.708 3.094 1.708 3.094s-.083 1.063.167 1.063 1.625.021 2.125.021-.108-1.432-.879-1.349c-.292-.458-.948-2.996-1.144-3.555-.194-.562-.093-1.806-.067-2.645s.943-.198 4.882-.226c3.938-.025 4.813-.438 4.813-.438s1.031 6.549 1.09 7.026c.078.52-.086 1.082.185 1.082s1.933-.005 2.394-.005c.463 0 .022-1.506-1.053-1.504-.211-.503-.375-3.628-.375-3.628l1.719-3.156s2.656 2.699 3.031 3.406c.375.709.197 2.614.197 2.614s-.354.417-.459.688c.258.412.908.908 1.479 1.479.75-.167.805-1.148.625-1.708-.178-.559-.457-.917-.457-.917s.479-1.729.291-2.354-2.271-5.271-2.771-6.707c-.5-1.438 2.398-6.229 2.398-6.229s3.988 2.211 5.062 1.202c.693-.633-1.843-3.804-1.406-5.285z"/></svg>