<svg enable-background="new 0 0 31.999 31.999" height="31.999" viewBox="0 0 31.999 31.999" width="31.999" xmlns="http://www.w3.org/2000/svg"><path d="m15.151 14.714s.156.314.301.349c1.052.248 5.739 1.314 7.087.471.72-.479-1.918-2.733-1.918-2.733s3.114 1.438 3.645.912c1.928-3.104-3.041-8.21-4.304-9.415-.317-.357-.551-.089-.551-.089l-5.896 4.085zm5.446-5.797c.517 0 .935.419.935.935 0 .517-.418.936-.935.936-.516 0-.935-.419-.935-.936.001-.516.42-.935.935-.935z"/><path d="m13.639 14.441c.646.036.46-.681.46-.681l-1.485-5.896 6.305-4.127s.42-.278.021-.529c-1.004-.856-3.944-3.286-4.934-3.206-1.199.096-.911 3.26-1.774 3.068-9.014.43-12.213 15.981-11.794 16.49.419.51.761.869 1.533.289.787 1.709-1.033 5.582-1.64 7.166-.158.479.244.353.521.116 1.392-1.391 2.378-1.885 2.936-1.831.557.055 1.844.543 2.591.96.357.263.771.19.393-.349-5.826-12.264 4.129-11.752 6.867-11.47z"/><path d="m16.848 17.283s-.154-.313-.301-.35c-1.05-.248-5.737-1.313-7.086-.472-.719.479 1.917 2.732 1.917 2.732s-3.115-1.436-3.643-.909c-1.93 3.104 3.04 8.21 4.303 9.415.317.356.551.089.551.089l5.896-4.086zm-5.446 5.797c-.516 0-.935-.419-.935-.936s.419-.937.935-.937c.517 0 .935.42.935.937s-.418.936-.935.936z"/><path d="m31.149 4.866c-1.392 1.391-2.379 1.885-2.937 1.831-.559-.054-1.844-.543-2.59-.96-.358-.263-.771-.19-.395.349 5.824 12.265-4.131 11.753-6.869 11.47-.646-.035-.459.683-.459.683l1.484 5.896-6.304 4.127s-.42.278-.021.529c1.004.854 3.945 3.286 4.935 3.207 1.196-.099.909-3.263 1.772-3.068 9.014-.432 12.213-15.98 11.793-16.491-.42-.509-.762-.868-1.533-.288-.787-1.709 1.033-5.583 1.643-7.166.158-.481-.243-.353-.519-.119z"/></svg>