<svg enable-background="new 0 0 32.001 32.001" height="32.001" viewBox="0 0 32.001 32.001" width="32.001" xmlns="http://www.w3.org/2000/svg"><path d="m26.595 9.335c-1.084-3.949-2.621-9.473-10.782-9.333-1.554.512 4.386 1.066 3.897 3.006-2.728-1.573-4.334-2.622-6.258-2.447-1.923.175-2.749 1.876-2.681 3.106 1.555.818 3.562 7.265 4.208 8.628s1.77 3.445 2.923 4.075c1.151.629-1.597 4.631-3.934 4.733-2.337.105-8.229 2.651-8.94 5.978 1.436-1.685 7.085-4.644 9.519-4.556 2.435.091 4.767-2.702 5.156-3.498.106 3.598-3.468 5.002-5.985 5.063-3.621.062-9.057 3.511-8.411 5.622.678-1.816 5.222-3.947 8.228-4.088 3.007-.14 5.8-1.688 7.231-2.956-.694 2.823-3.303 3.837-6.309 4.372-3.006.537-9.045 2.195-8.953 4.96 1.167-1.718 6.522-3.355 12.301-3.729 5.782-.374 10.573-12.049 8.79-18.936zm-6.748-7.677s4.74 2.647 2.396 6.895c.52-4.161-2.396-6.895-2.396-6.895zm3.313 2.957s5.163 7.113-.92 10.608c3.763-4.754.92-10.608.92-10.608z"/><path d="m8.332 13.845c.047.419-.228.961-.297 1.258s-.472.191-.419.611c.052.419.559.579.559.579s-.384.228-.367.542c.088.542 1.083.088 1.153.298.07.209.054.042-.008.476s-.848.572-.376 1.673c.62 1.446 7.166.612 8.739-2.288-5.628-5.071-5.75-12.516-6.87-12.375-1.119.137-2.098 4.821-2.132 5.905-.035 1.083-1.171 1.765-1.312 2.604-.139.839 1.049.49 1.33.717zm.314-3.867c.071-.197 1.66.303 1.66.529 0 .228-1.171.262-1.45.228-.098-.013-.441-.135-.21-.757z"/></svg>