<svg enable-background="new 0 0 32.016 32.016" height="32.016" viewBox="0 0 32.016 32.016" width="32.016" xmlns="http://www.w3.org/2000/svg"><path d="m18.691 13.282c-.775-.371-1.127-.752-.785-1.202.344-.449.354-2.181-.017-1.736-.369.445-.375.25-.969.656s-2.192-.191-3.75 2.219-.495 5.573-1.978 5.463c-.778-.186-.296-8.307 6.341-8.715 1.633-.778 4.418-3.623 3.783-5.153-.294-1.524-2.818 1.779-2.707.853.11-.928 2.735-2.073 2.59-2.851-.148-.779-.773-.896-1.402-.746-.631.148.592.745-.459 1.08-.479.11-.121-.169-.506-.709-.385-.541-2.669.815-2.669.815s.647-3.256-1.023-3.256c.623 3.982-5.504 4.664-5.504 4.664s-1.005-2.412 1.036-4.039c-3.152-.11-2.852 4.559-2.852 4.559s-1.112-.149-.965.778c.148.927 1.78 1.928 2.336 1.816-3.448 5.711-1.52 14.462-1.52 14.462s2.521 5.748 2.67 9.085c.297 2.151 3.561-1.409 3.561-1.409l1-1.668s10.122-5.605 10.27-9.092c.148-3.485-5.706-5.504-6.481-5.874zm-3.344-9.286c.501-.111.945 0 .668.334-.278.334-2.295 1.441-2.295 1.441s1.127-1.664 1.627-1.775z"/></svg>