<svg enable-background="new 0 0 30.432 30.432" height="30.432" viewBox="0 0 30.432 30.432" width="30.432" xmlns="http://www.w3.org/2000/svg"><path d="m13.343 5.465c1.023-.184 1.839-.968 2.353-1.61-.527-.824-1.198-1.541-1.87-2.12-.191.827-.611 1.985-1.519 2.728.405.286.775.622 1.036 1.002z"/><path d="m13.605 5.952c.088.23.133.474.114.729.045.286.054.529.035.744 1.013.414 2.207.221 2.919.032.023-.208.033-.398.03-.556-.027-.926-.311-1.779-.725-2.552-.542.647-1.35 1.362-2.373 1.603z"/><path d="m9.928 3.264c-.043-.019.934.299 1.905.884.977-.705 1.374-2.009 1.527-2.792-1.229-.956-2.325-1.436-2.34-1.284.356.855-1.092 3.192-1.092 3.192z"/><path d="m14.493 10.683c1.241-.22 1.85-1.541 2.086-2.654-.407.096-.911.179-1.453.179-.494 0-1.014-.069-1.506-.261-.146.303-.395.497-.738.607.177.896.782 1.666 1.304 2.183.102-.019.203-.032.307-.054z"/><path d="m10.776 10.062c.525.646 1.572.857 2.752.76-.504-.56-1.011-1.313-1.174-2.192-.667-.067-.745-1.034-.228-1.971-.388.005-2.52 1.68-1.35 3.403z"/><path d="m29.037 14.087c-.724.603-1.74 1.362-3.009 1.021-.317-.25-.711-.45-1.202-.583-7.164-2.034-14.461-2.122-15.347-3.185-.885-1.062-1.039-2.364.067-2.74 2.255-.93 1.319-4.776-.243-5.439.354-.177 1.99-3.228.619-3.14-4.466-.355-5.461 3.67-5.35 4.422.109.751-2.39 2.653-3.097 3.36-.707.709-.485 1.726.399 2.014.885.287 3.243-1.085 3.339-.178 1.104 8.403 1.505 7.435 1.839 8.341s-1.553 7.02-1.692 7.487c-.175.58.27 2.187.27 2.187s-.261.333-.426.851c-.166.521-.116 1.433.58 1.585.531-.529 1.134-.989 1.372-1.373-.097-.251-.425-.638-.425-.638s-.256-2.503.093-3.16c.348-.658 3.042-3.792 3.042-3.792l1.459 4.293s-.153 2.9-.349 3.371c-1-.002-1.405 1.396-.978 1.396.429 0 1.971.004 2.221.004s.099-.522.171-1.004c.028-.227.704-3.414.621-3.789s.167-3.417.167-3.417 1.033.476 4.688.5c3.654.021 4.511.021 4.534.798.021.777.116 1.933-.063 2.453-.181.519-.791 2.875-1.061 3.3-.718-.077-1.28 1.251-.816 1.251s1.74-.019 1.972-.019.156-.986.156-.986 1.23-2.354 1.585-2.871c.355-.518.609-3.132.609-3.132l2.215 2.666s.173 2.854.173 3.145c-.754.077-1.305 1.295-.938 1.295s1.905.052 2.188.052c.284 0 .142-1.346.142-1.346s.137-2.317.137-3.27-1.864-2.775-2.102-3.537c-.134-.436.009-1.216.188-1.923h.006c.055-.2.107-.406.158-.625.213-.967.325-2.087.07-3.057 1.023-.365 3.191-.744 2.018-2.588z"/></svg>