<svg enable-background="new 0 0 32 32" height="32" viewBox="0 0 32 32" width="32" xmlns="http://www.w3.org/2000/svg"><path d="m24.428 18.976c-.093-1.295-5.011-3.958-8.123-4.147-.019-.002-.034-.018-.053-.018-3.042-.139-8.581 2.78-8.68 4.154-.095 1.316 4.098 4.471 8.145 4.604.01.002.021.018.031.019 4.203.146 8.778-3.239 8.68-4.612z"/><path d="m27.694 17.642c.152-.069.47-.481.416-1.625-.051-1.143-.697-1.776-1.133-1.737-.435.039-3.873.329-4.043 2.04-.168 1.711 4.61 1.393 4.76 1.322z"/><path d="m28.526 15.961c0 1.257.012.976 0 1.568-.01.593 2.314.637 3.138 2.907 1.204-2.212-3.138-5.731-3.138-4.475z"/><path d="m25.223 18.181c-.328.408.078.846-.024 1.104-.104.261-.896 1.212-1.038 1.603-.146.392 3.055 1.57 3.768.689.714-.881.69-.938.829-1.624.135-.686-3.209-2.182-3.535-1.772z"/><path d="m29.102 20.616c-.322.436-1.209 1.39-.851 1.538 1.364-.052 3.019 1.624 3.627 3.136.552-.605-.832-5.857-2.776-4.674z"/><path d="m25.534 22.861c-.299-.448-1.268-1.399-1.715-1.536-.448-.137-3.797 1.842-2.707 2.669.906.533 2.466.267 3.25.42.534-.446 1.284-1.119 1.172-1.553z"/><path d="m25.874 23.588c-.382.24-.981.929-1.204 1.203 1.596 3.069 1.854 3.229 1.848 4.88 1.448-.109 1.043-5.943-.644-6.083z"/><path d="m21.552 16.098c.212.014 1.445-.255 1.46-.921.014-.666-1.574-1.403-2.268-1.262s-2.146.628-1.629.899c.514.271 2.225 1.269 2.437 1.284z"/><path d="m23.817 11.209c-2.067-.099-2.775 2.522-2.139 2.607.637.085 1.359.779 1.912.765s1.221-3.372.227-3.372z"/><path d="m24.414 10.884c.383.127 5.071-.949 4.548-5.71-1.035 1.332-3.627 2.635-4.548 1.969s-.963-1.742-.297-4.803c-6.519 2.14-1.517 7.807-1.29 8.189.228.383 1.205.227 1.587.355z"/><path d="m3.888 16.007c-.052 1.143.264 1.555.416 1.625.152.069 4.931.389 4.76-1.323-.17-1.71-3.608-2.001-4.042-2.04-.435-.039-1.083.596-1.134 1.738z"/><path d="m3.472 17.517c-.01-.594 0-.312 0-1.566s-4.34 2.262-3.136 4.479c.822-2.275 3.146-2.317 3.136-2.913z"/><path d="m7.841 20.876c-.144-.39-.934-1.341-1.038-1.604-.104-.26.302-.694-.025-1.104-.328-.408-3.671 1.086-3.534 1.771.138.688.116.744.829 1.625.713.883 3.912-.297 3.768-.688z"/><path d="m.123 25.279c.609-1.513 2.263-3.187 3.627-3.138.358-.146-.528-1.104-.85-1.537-1.946-1.18-3.33 4.073-2.777 4.675z"/><path d="m8.181 21.313c-.448.138-1.417 1.089-1.714 1.535-.113.436.637 1.104 1.171 1.555.784-.155 2.342.111 3.25-.419 1.09-.828-2.259-2.803-2.707-2.671z"/><path d="m6.126 23.577c-1.686.143-2.092 5.977-.643 6.083-.009-1.647.25-1.812 1.847-4.879-.222-.276-.821-.966-1.204-1.204z"/><path d="m8.988 15.166c.014.666 1.247.935 1.459.921.212-.015 1.923-1.013 2.437-1.283s-.935-.757-1.629-.898-2.281.594-2.267 1.26z"/><path d="m10.32 13.806c.638-.085-.071-2.706-2.14-2.606-.992 0-.326 3.357.227 3.371s1.276-.68 1.913-.765z"/><path d="m7.586 10.873c.382-.128 1.36.028 1.587-.354.226-.383 5.228-6.05-1.29-8.19.666 3.061.624 4.138-.297 4.804-.921.665-3.514-.638-4.548-1.97-.524 4.761 4.165 5.837 4.548 5.71z"/></svg>