<svg enable-background="new 0 0 32 32" height="32" viewBox="0 0 32 32" width="32" xmlns="http://www.w3.org/2000/svg"><path d="m1.631 13.91c1.703 0 2.789-1.314 3.662-2.376.873-1.057 1.455-1.698 2.181-1.698.382 0 .688.412 1.356 1.574.775 1.35 1.944 3.386 4.486 3.386 2.623 0 3.706-2.061 4.42-3.422.312-.596.703-1.336.947-1.336.422 0 1.055 1.006 1.516 1.737.867 1.373 1.943 3.086 3.988 3.086 1.994 0 3.479-1.663 4.797-3.132.473-.528 1.177-1.312 1.514-1.493.841-.064 1.502-.768 1.502-1.625 0-.899-.729-1.632-1.63-1.632-1.511 0-2.63 1.25-3.813 2.574-.641.716-1.832 2.045-2.373 2.045-.283-.067-.918-1.078-1.225-1.562-.866-1.376-2.053-3.262-4.275-3.262-2.215 0-3.188 1.854-3.833 3.079-.725 1.38-.996 1.678-1.533 1.678-.561 0-.905-.438-1.658-1.747-.781-1.355-1.849-3.213-4.186-3.213-2.316 0-3.693 1.669-4.697 2.889-.342.412-.91 1.104-1.163 1.188-.892.01-1.614.737-1.614 1.631 0 .901.73 1.631 1.631 1.631z"/><path d="m30.37 17.55c-1.511 0-2.63 1.25-3.813 2.572-.641.717-1.832 2.046-2.373 2.046-.283-.067-.918-1.077-1.225-1.562-.866-1.377-2.053-3.262-4.275-3.262-2.215 0-3.188 1.854-3.833 3.08-.725 1.379-.996 1.676-1.533 1.676-.561 0-.905-.438-1.658-1.746-.779-1.355-1.848-3.215-4.185-3.215-2.315 0-3.692 1.67-4.696 2.89-.342.414-.91 1.104-1.163 1.188-.894.011-1.616.736-1.616 1.63 0 .899.73 1.631 1.631 1.631 1.703 0 2.789-1.314 3.662-2.375.873-1.058 1.455-1.699 2.181-1.699.382 0 .688.413 1.356 1.574.775 1.351 1.944 3.386 4.486 3.386 2.623 0 3.706-2.06 4.42-3.42.312-.597.703-1.337.947-1.337.422 0 1.055 1.006 1.516 1.736.867 1.375 1.943 3.086 3.988 3.086 1.994 0 3.479-1.662 4.797-3.131.473-.527 1.177-1.312 1.514-1.494.841-.064 1.502-.768 1.502-1.625 0-.901-.729-1.629-1.63-1.629z"/></svg>