<svg enable-background="new 0 0 32 32" height="32" viewBox="0 0 32 32" width="32" xmlns="http://www.w3.org/2000/svg"><path d="m27.955 19.752c-.087.078-7.049 6.217-14.847 6.047.944-1.231 1.53-2.756 1.53-4.428 0-4.035-3.283-7.317-7.319-7.317-4.036-.001-7.319 3.282-7.319 7.318 0 3.6 2.614 6.582 6.04 7.189 2.52 1.15 5.032 1.632 7.44 1.632 9.279 0 16.985-6.836 17.392-7.204.894-.807.962-2.181.16-3.072-.807-.897-2.182-.967-3.077-.165zm-20.636 4.582c-1.634 0-2.962-1.326-2.962-2.963 0-1.633 1.328-2.961 2.962-2.961s2.962 1.328 2.962 2.961c0 1.636-1.328 2.963-2.962 2.963z"/><path d="m4.045 12.247c.087-.077 7.049-6.215 14.848-6.045-.943 1.231-1.531 2.755-1.531 4.426 0 4.036 3.283 7.318 7.32 7.318 4.035 0 7.318-3.282 7.318-7.318 0-3.598-2.615-6.58-6.04-7.188-2.521-1.153-5.032-1.633-7.44-1.633-9.279 0-16.985 6.836-17.392 7.204-.895.807-.962 2.181-.16 3.071.808.899 2.183.969 3.077.165zm20.637-4.581c1.633 0 2.961 1.327 2.961 2.962s-1.328 2.962-2.961 2.962c-1.635 0-2.963-1.327-2.963-2.962 0-1.634 1.328-2.962 2.963-2.962z"/></svg>