<svg enable-background="new 0 0 32.001 32" height="32" viewBox="0 0 32.001 32" width="32.001" xmlns="http://www.w3.org/2000/svg"><path d="m31.983 2.058c-.01-.243-.051-.489-.146-.718-.104-.251-.253-.474-.439-.664-.004-.006-.006-.012-.01-.017-.193-.194-.425-.347-.68-.453-.255-.106-.524-.163-.798-.163-.001 0-.001 0-.002 0h-11.161c-1.155 0-2.093.937-2.093 2.093 0 1.157.938 2.093 2.093 2.093h6.099l-9.998 9.967-3.593-3.729c-.802-.83-2.128-.856-2.959-.053-.833.801-.858 2.125-.056 2.959l3.642 3.777-11.267 11.233c-.818.814-.82 2.141-.004 2.959.408.411.944.615 1.481.615.534 0 1.069-.204 1.478-.611l11.215-11.181 4.11 4.265c.41.426.957.641 1.508.641.521 0 1.047-.192 1.451-.586.832-.801.856-2.127.056-2.959l-4.158-4.315 10.062-10.03v5.944c0 1.157.938 2.094 2.096 2.094 1.154 0 2.092-.937 2.092-2.094v-10.989c-.002-.029-.017-.051-.019-.078z"/></svg>