<svg enable-background="new 0 0 32 32" height="32" viewBox="0 0 32 32" width="32" xmlns="http://www.w3.org/2000/svg"><path d="m30.162 6.688c-2.404-3.18-6.688-4.528-10.425-3.279-1.597.535-2.883 1.511-3.827 2.791-.925-1.166-2.147-2.06-3.649-2.563-3.735-1.251-8.019.096-10.423 3.277-2.332 3.089-2.022 6.004-1.354 7.906.736 2.089 2.399 4.116 3.634 4.426.979.24 1.979-.348 2.227-1.332.215-.854-.208-1.723-.97-2.095-.311-.27-1.404-1.46-1.651-3.104-.187-1.241.156-2.413 1.044-3.588 1.444-1.909 4.104-2.752 6.326-2.011 1.98.665 3.07 2.453 3.07 5.033v14.841.229c0 1.016.821 1.835 1.836 1.835 1.016 0 1.836-.819 1.836-1.835v-.229-14.84-.226c0-2.582 1.09-4.369 3.069-5.034 2.226-.742 4.883.101 6.326 2.01.889 1.176 1.229 2.35 1.043 3.587-.248 1.646-1.34 2.836-1.649 3.104-.763.373-1.187 1.24-.972 2.096.248.985 1.244 1.581 2.229 1.332 1.235-.311 2.896-2.338 3.634-4.426.668-1.904.978-4.82-1.354-7.905z"/></svg>