<svg enable-background="new 0 0 32 32" height="32" viewBox="0 0 32 32" width="32" xmlns="http://www.w3.org/2000/svg"><path d="m1.78 19.263h6.97c.983 0 1.78-.796 1.78-1.778l-.002-.352c-.015-1.361-.046-4.196 1.523-5.784.852-.861 2.101-1.28 3.818-1.28 2.497 0 4.066.885 4.941 2.782.771 1.678.771 3.691.77 4.633 0 .981.797 1.777 1.779 1.777h6.856c.983 0 1.78-.796 1.78-1.777 0-.982-.797-1.779-1.78-1.779h-5.132c-.092-1.238-.348-2.825-1.043-4.342-1.02-2.216-3.266-4.855-8.173-4.855-2.68 0-4.816.786-6.35 2.338-2.021 2.042-2.454 4.886-2.537 6.857h-5.2c-.983 0-1.78.796-1.78 1.779 0 .985.797 1.781 1.78 1.781z"/><path d="m30.221 21.934h-28.441c-.983 0-1.78.796-1.78 1.778 0 .983.797 1.78 1.78 1.78h28.441c.982 0 1.779-.797 1.779-1.78s-.797-1.778-1.779-1.778z"/></svg>