<svg enable-background="new 0 0 31.998 31.998" height="31.998" viewBox="0 0 31.998 31.998" width="31.998" xmlns="http://www.w3.org/2000/svg"><path d="m25.262 10.757c-2.213 0-4.164 1.088-5.394 2.741-.616-1.326-1.22-3.132-1.22-5.142 0-2.469-2.002-4.129-4.982-4.129-1.527 0-3.107.462-4.193 1.345-1.33-1.016-3.258-1.586-4.825-1.586-1.246 0-2.331.337-3.136.974-.69.546-1.512 1.578-1.512 3.398 0 .819.664 1.481 1.482 1.481s1.482-.662 1.482-1.481c0-.722.203-1.23 1.195-1.375 1.762-.264 3.777.883 3.929 1.375v12.104c0 .818.664 1.481 1.482 1.481s1.481-.663 1.481-1.481v-12.104c0-.522 1.206-1.165 2.614-1.165.649 0 1.234.142 1.604.385.294.195.413.423.413.78 0 4.285 2.095 7.705 2.873 8.828-.006.104-.031.204-.031.31 0 1.057.266 2.04.697 2.93-.908 1.381-3.453 4.526-7.861 4.621-.818.019-1.468.693-1.451 1.515.018.808.678 1.45 1.482 1.45h.031c5.055-.107 8.215-3.201 9.738-5.205 1.141.882 2.551 1.43 4.1 1.43 3.717 0 6.738-3.021 6.738-6.736 0-3.719-3.019-6.744-6.736-6.744zm0 10.514c-2.08 0-3.773-1.693-3.773-3.774 0-2.08 1.693-3.773 3.773-3.773 2.082 0 3.775 1.693 3.775 3.773s-1.693 3.774-3.775 3.774z"/></svg>