<svg enable-background="new 0 0 32 32" height="32" viewBox="0 0 32 32" width="32" xmlns="http://www.w3.org/2000/svg"><path d="m31.882 17.006c.498-2.979-.598-5.78-2.931-7.495-1.225-.9-2.631-1.364-3.889-1.354v-1.503c0-3.987-3.293-4.659-5.371-4.659-1.394 0-2.688.524-3.65 1.479-.002.002-.003.004-.005.006-1.021-.974-2.374-1.485-3.689-1.485-1.39 0-2.686.524-3.648 1.479-.008.006-.014.018-.021.025-.985-.822-2.214-1.268-3.418-1.268-1.392 0-2.688.524-3.65 1.479-.734.729-1.61 2.051-1.61 4.199 0 .979.792 1.771 1.772 1.771.979 0 1.772-.792 1.772-1.771 0-1.979 1.312-2.133 1.715-2.133.843 0 1.827.558 1.827 2.133v14.99c0 .979.793 1.771 1.772 1.771s1.772-.793 1.772-1.771v-15.228c0-1.979 1.544-2.129 1.968-2.129s1.877.113 1.877 2.41c0 2.871-.045 14.946-.045 14.946 0 .979.792 1.771 1.772 1.771.979 0 1.772-.793 1.772-1.771v-15.227c0-1.979 1.312-2.132 1.715-2.132.843 0 1.828.557 1.828 2.132 0 0 .051 16.173.049 17.226-1.44.844-2.838 1.396-3.893 1.596-.962.182-1.595 1.107-1.414 2.07.161.85.904 1.442 1.74 1.442.107 0 .221-.012.33-.03 1.422-.271 3.402-1.045 5.418-2.277 1.896.971 4.486 1.439 5.799 1.627.956.129 1.867-.537 2.004-1.504.139-.971-.533-1.867-1.504-2.006-1.008-.146-2.057-.375-2.951-.627 2.318-2.123 4.235-4.881 4.787-8.182zm-6.762 5.182c.002-.781.005-1.646.009-2.549.01-2.867.021-6.07.021-7.956.397.02 1.146.219 1.877.819.662.543 1.718 1.775 1.359 3.918-.366 2.203-1.652 4.167-3.266 5.768z"/></svg>