<svg enable-background="new 0 0 32 32" height="32" viewBox="0 0 32 32" width="32" xmlns="http://www.w3.org/2000/svg"><path d="m29.988.479h-.005c-.276 0-6.46.118-10.985 7.858-.91-.225-1.854-.359-2.833-.359-1.086 0-2.135.16-3.134.437-4.533-7.814-10.753-7.936-11.03-7.936-.002 0-.004 0-.006 0-1.098 0-1.974.879-1.995 1.975-.018 1.098.862 2.009 1.962 2.046.181.006 4.14.216 7.417 5.645-3.011 2.135-4.986 5.641-4.986 9.605 0 6.489 5.28 11.771 11.771 11.771 6.492 0 11.774-5.28 11.774-11.771 0-4.069-2.077-7.663-5.225-9.777 3.231-5.218 7.068-5.463 7.307-5.473 1.101-.016 1.983-.913 1.98-2.017-.002-1.107-.901-2.004-2.012-2.004zm-13.824 27.02c-4.272 0-7.749-3.476-7.749-7.748s3.477-7.751 7.749-7.751c4.275 0 7.751 3.478 7.751 7.75.001 4.273-3.477 7.749-7.751 7.749z"/></svg>