<svg enable-background="new 0 0 31.997 31.997" height="31.997" viewBox="0 0 31.997 31.997" width="31.997" xmlns="http://www.w3.org/2000/svg"><path d="m31.455 21.75-4.507-3.229c-.399-.286-.921-.326-1.354-.104-.435.223-.707.67-.707 1.159v1.984c-.863-.207-2.01-.649-2.01-1.333v-12.029c0-2.904-3.006-4.252-4.902-4.252-1.271 0-2.454.479-3.333 1.351-.001.001-.003.003-.005.004-.931-.889-2.167-1.355-3.367-1.355-1.269 0-2.452.479-3.33 1.351-.007.005-.013.015-.02.021-.898-.75-2.02-1.156-3.12-1.156-1.27 0-2.453.479-3.331 1.351-.67.664-1.469 1.87-1.469 3.83 0 .895.724 1.617 1.618 1.617s1.617-.724 1.617-1.617c0-1.806 1.198-1.945 1.565-1.945.77 0 1.669.509 1.669 1.945v13.685c0 .895.723 1.617 1.617 1.617s1.617-.725 1.617-1.617v-13.9c0-1.806 1.199-1.946 1.566-1.946 2.192 0 1.903 2.105 1.903 2.734v13.112c0 .895.724 1.617 1.617 1.617.895 0 1.618-.725 1.618-1.617v-13.9c0-1.806 1.196-1.946 1.565-1.946.77 0 1.668.51 1.668 1.946v11.104c0 3.082 3.139 4.321 5.242 4.622v1.893c0 .512.301.975.766 1.188.174.078.354.117.537.117.311 0 .615-.11.857-.321l4.507-3.937c.302-.262.466-.646.445-1.045-.015-.403-.215-.768-.539-.999z"/></svg>