<svg enable-background="new 0 0 32.001 32.001" height="32.001" viewBox="0 0 32.001 32.001" width="32.001" xmlns="http://www.w3.org/2000/svg"><path d="m29.824 14.867h-7.59c.701-6.977 4.605-9.606 4.834-9.754 1.017-.626 1.336-1.956.719-2.979-.625-1.028-1.961-1.351-2.989-.732-.269.161-6.146 3.85-6.937 13.465h-4.901c-.793-9.615-6.669-13.303-6.937-13.465-1.021-.616-2.34-.291-2.966.72-.63 1.012-.317 2.348.69 2.989.183.119 4.132 2.736 4.835 9.756h-6.406c-1.203 0-2.176.974-2.176 2.177 0 1.201.973 2.176 2.176 2.176h6.393c-.73 6.222-4.487 7.361-4.634 7.4-1.168.281-1.889 1.456-1.608 2.624.24.997 1.131 1.669 2.114 1.669.168 0 .338-.021.51-.061.308-.076 7.113-1.829 8.003-11.636h4.914c.889 9.807 7.694 11.56 8.004 11.636.17.039.34.061.505.061.967 0 1.836-.656 2.089-1.637.298-1.148-.399-2.329-1.545-2.646-.176-.049-3.937-1.188-4.667-7.41h7.571c1.202 0 2.176-.975 2.176-2.176 0-1.203-.974-2.177-2.177-2.177z"/></svg>