<svg enable-background="new 0 0 31.742 31.742" height="31.742" viewBox="0 0 31.742 31.742" width="31.742" xmlns="http://www.w3.org/2000/svg"><path d="m30.096 24.16c-.237-1.158-1.373-1.91-2.526-1.671-1.16.236-1.906 1.368-1.668 2.527.053.271-2.261 3.369-3.908 2.63s-1.771-3.751-.705-5.126c2.334-3.002 7.604-10.612 6.123-16.393-.586-2.287-2.148-4.036-4.563-5.082-3.657-1.482-6.749-1.389-9.193.283-3.428 2.344-4.309 7.04-4.53 9.608-.014 0-.025-.005-.039-.005-4.153 0-7.532 3.379-7.532 7.532 0 4.152 3.379 7.531 7.532 7.531 4.152 0 7.53-3.379 7.53-7.531 0-2.571-1.298-4.842-3.271-6.203.037-1.81.56-5.921 2.731-7.401 1.188-.802 2.917-.754 5.113.138 1.521.657 1.91 1.567 2.07 2.194.682 2.655-1.421 7.641-5.354 12.701-2.955 3.801-2.44 7.938 1.371 11.065 2.258 1.416 5.691.635 7.03-.174 2.113-1.27 4.372-3.77 3.789-6.623zm-21.01-2.451c-1.791 0-3.247-1.457-3.247-3.246 0-1.791 1.456-3.249 3.247-3.249s3.247 1.458 3.247 3.249c-.001 1.789-1.458 3.246-3.247 3.246z"/></svg>